<svg width="30" height="21" viewBox="0 0 30 21" fill="none" xmlns="http://www.w3.org/2000/svg">
<g clip-path="url(#clip0_1629_16318)">
<path d="M2.12476 4.3591C3.22933 4.3591 4.12476 3.44739 4.12476 2.32274C4.12476 1.19809 3.22933 0.286377 2.12476 0.286377C1.02019 0.286377 0.124756 1.19809 0.124756 2.32274C0.124756 3.44739 1.02019 4.3591 2.12476 4.3591Z" fill="black"/>
<path d="M29.7812 1.05005H6.5V3.56369H29.7812V1.05005Z" fill="black"/>
<path d="M2.12476 12.6318C3.22933 12.6318 4.12476 11.7201 4.12476 10.5954C4.12476 9.47079 3.22933 8.55908 2.12476 8.55908C1.02019 8.55908 0.124756 9.47079 0.124756 10.5954C0.124756 11.7201 1.02019 12.6318 2.12476 12.6318Z" fill="black"/>
<path d="M29.7812 9.32275H6.5V11.8364H29.7812V9.32275Z" fill="black"/>
<path d="M2.12476 20.9045C3.22933 20.9045 4.12476 19.9928 4.12476 18.8682C4.12476 17.7435 3.22933 16.8318 2.12476 16.8318C1.02019 16.8318 0.124756 17.7435 0.124756 18.8682C0.124756 19.9928 1.02019 20.9045 2.12476 20.9045Z" fill="black"/>
<path d="M29.7812 17.5955H6.5V20.1091H29.7812V17.5955Z" fill="black"/>
</g>
<defs>
<clipPath id="clip0_1629_16318">
<rect width="30" height="21" fill="white"/>
</clipPath>
</defs>
</svg>
