<svg width="41" height="26" viewBox="0 0 41 26" fill="none" xmlns="http://www.w3.org/2000/svg">
<path d="M41 0V26H36.5435V0H41ZM35.2065 0V26H32.9783V0H35.2065ZM32.087 0V26H31.1957V0H32.087ZM30.3043 0V26H27.6304V0H30.3043ZM26.7391 0V26H25.8478V0H26.7391ZM24.0652 0V26H23.1739V0H24.0652ZM21.837 0V26H20.9457V0H21.837ZM20.0543 0V26H19.163V0H20.0543ZM17.3804 0V26H13.8152V0H17.3804ZM12.4783 0V26H9.80435V0H12.4783ZM8.02174 0V26H7.13043V0H8.02174ZM6.23913 0V26H4.45652V0H6.23913ZM3.56522 0V26H0V0H3.56522Z" fill="black"/>
</svg>
